<?xml version="1.0" encoding="UTF-8" standalone="no"?>
<svg
   xmlns:dc="http://purl.org/dc/elements/1.1/"
   xmlns:cc="http://creativecommons.org/ns#"
   xmlns:rdf="http://www.w3.org/1999/02/22-rdf-syntax-ns#"
   xmlns:svg="http://www.w3.org/2000/svg"
   xmlns="http://www.w3.org/2000/svg"
   xmlns:sodipodi="http://sodipodi.sourceforge.net/DTD/sodipodi-0.dtd"
   xmlns:inkscape="http://www.inkscape.org/namespaces/inkscape"
   version="1.1"
   viewBox="0 0 917.28925 127.4552"
   stroke-miterlimit="10"
   id="svg432"
   sodipodi:docname="elevate_flowchart.svg"
   inkscape:version="0.92.2 5c3e80d, 2017-08-06"
   width="917.28925"
   height="127.4552"
   style="fill:none;stroke:none;stroke-linecap:square;stroke-miterlimit:10">
  <metadata
     id="metadata438">
    <rdf:RDF>
      <cc:Work
         rdf:about="">
        <dc:format>image/svg+xml</dc:format>
        <dc:type
           rdf:resource="http://purl.org/dc/dcmitype/StillImage" />
      </cc:Work>
    </rdf:RDF>
  </metadata>
  <defs
     id="defs436" />
  <sodipodi:namedview
     pagecolor="#ffffff"
     bordercolor="#666666"
     borderopacity="1"
     objecttolerance="10"
     gridtolerance="10"
     guidetolerance="10"
     inkscape:pageopacity="0"
     inkscape:pageshadow="2"
     inkscape:window-width="2201"
     inkscape:window-height="1234"
     id="namedview434"
     showgrid="false"
     inkscape:zoom="1.4569346"
     inkscape:cx="424.75093"
     inkscape:cy="101.14121"
     inkscape:window-x="0"
     inkscape:window-y="0"
     inkscape:window-maximized="0"
     inkscape:current-layer="svg432" />
  <clipPath
     id="g6dfa5877b2_0_0.0">
    <path
       d="M 0,0 H 960 V 540 H 0 Z"
       id="path339"
       inkscape:connector-curvature="0"
       style="clip-rule:nonzero" />
  </clipPath>
  <g
     id="g546"
     transform="translate(0,-86.04216)">
    <path
       d="m 0,86.54216 h 146.80314 v 77.25983 H 0 Z"
       id="path382"
       inkscape:connector-curvature="0"
       style="fill:#074284;fill-rule:evenodd" />
    <path
       d="m 14.249998,107.88896 q 2.578125,0 3.796875,0.85937 1.234375,0.84375 1.234375,2.75 0,1.40625 -0.828125,2.3125 -0.828125,0.90625 -2.46875,1.20313 l 3.75,6.07812 h -1.921875 l -3.59375,-5.9375 h -2.015625 v 5.9375 h -1.5625 v -13.20312 z m -0.171875,5.8125 q 1.84375,0 2.671875,-0.5 0.84375,-0.51563 0.84375,-1.6875 0,-1.10938 -0.75,-1.64063 -0.75,-0.53125 -2.34375,-0.53125 h -2.296875 v 4.35938 z m 11.680222,-1.5625 q 1.9375,0 3.03125,1.21875 1.09375,1.21875 1.109375,3.46875 v 0.34375 h -7.0625 q 0.125,1.21875 0.921875,2 0.796875,0.78125 1.953125,0.79687 1.78125,0 2.765625,-1.3125 l 1.09375,0.85938 q -0.6875,0.89062 -1.625,1.34375 -0.921875,0.45312 -2.234375,0.45312 -1.984375,0 -3.203125,-1.29687 -1.21875,-1.29688 -1.234375,-3.28125 0,-1.98438 1.234375,-3.26563 1.25,-1.29687 3.25,-1.32812 z m 2.5625,3.79687 q -0.04687,-1.125 -0.734375,-1.78125 -0.671875,-0.67187 -1.90625,-0.67187 -1.125,0 -1.890625,0.64062 -0.765625,0.625 -0.953125,1.8125 z m 7.951004,-3.79687 q 1.015625,0 1.859375,0.46875 0.84375,0.46875 1.234375,1.25 h 0.04687 v -1.5 h 1.453125 v 8.4375 q 0,2.23437 -1.203125,3.48437 -1.1875,1.25 -3.5625,1.29688 -1.28125,0 -2.328125,-0.375 -1.046875,-0.375 -1.953125,-1.29688 l 1.046875,-1.1875 q 1.390625,1.51563 3.234375,1.51563 3.3125,0 3.3125,-3.51563 v -1.14062 h -0.04687 q -0.484375,0.78125 -1.34375,1.20312 -0.84375,0.42188 -1.75,0.42188 -2.015625,0 -3.296875,-1.25 -1.28125,-1.26563 -1.328125,-3.21875 0,-2.10938 1.265625,-3.34375 1.28125,-1.23438 3.359375,-1.25 z m -3.0625,4.59375 q 0,1.29687 0.890625,2.20312 0.90625,0.90625 2.1875,0.92188 1.421875,0 2.265625,-0.90625 0.859375,-0.92188 0.859375,-2.26563 0,-1.4375 -0.875,-2.3125 -0.859375,-0.875 -2.265625,-0.89062 -1.328125,0 -2.203125,0.9375 -0.859375,0.92187 -0.859375,2.3125 z m 11.195847,-8.84375 q 0.4375,0 0.75,0.3125 0.3125,0.29687 0.3125,0.75 0,0.46875 -0.296875,0.76562 -0.296875,0.29688 -0.765625,0.29688 -0.46875,0 -0.765625,-0.29688 -0.296875,-0.29687 -0.296875,-0.76562 0,-0.45313 0.3125,-0.75 0.328125,-0.3125 0.75,-0.3125 z m 0.734375,4.46875 v 8.73437 h -1.453125 v -8.73437 z m 5.555633,-0.21875 q 2.09375,0.0156 2.96875,1.57812 l -1.21875,0.8125 q -0.625,-1.04687 -1.84375,-1.04687 -0.71875,0 -1.21875,0.34375 -0.5,0.32812 -0.5,0.85937 0,0.89063 2.1875,1.28125 1.5625,0.28125 2.21875,0.92188 0.65625,0.625 0.65625,1.6875 0,1.28125 -0.953125,2.01562 -0.953125,0.71875 -2.53125,0.71875 -1.234375,0 -2.03125,-0.39062 -0.796875,-0.39063 -1.375,-1.23438 l 1.15625,-0.89062 q 0.546875,0.65625 1.0625,0.92187 0.53125,0.25 1.1875,0.25 0.828125,0 1.375,-0.35937 0.546875,-0.35938 0.546875,-0.98438 0,-0.625 -0.578125,-0.9375 -0.5625,-0.32812 -1.890625,-0.59375 -1.3125,-0.26562 -1.90625,-0.82812 -0.578125,-0.5625 -0.578125,-1.54688 0,-1.10937 0.90625,-1.82812 0.90625,-0.73438 2.359375,-0.75 z m 7.478821,-2.26563 v 2.48438 h 2.578125 v 1.23437 h -2.578125 v 4.67188 q 0,1.03125 0.328125,1.375 0.34375,0.32812 0.984375,0.32812 0.71875,0 1.28125,-0.29687 l 0.0625,1.32812 q -0.75,0.3125 -1.703125,0.3125 -1.34375,0 -1.875,-0.65625 -0.53125,-0.65625 -0.53125,-2.17187 v -4.89063 h -1.90625 v -1.23437 h 1.90625 v -2.48438 z m 8.348251,2.26563 q 1.9375,0 3.03125,1.21875 1.09375,1.21875 1.109375,3.46875 v 0.34375 h -7.0625 q 0.125,1.21875 0.921875,2 0.796875,0.78125 1.953125,0.79687 1.78125,0 2.765625,-1.3125 l 1.09375,0.85938 q -0.6875,0.89062 -1.625,1.34375 -0.921875,0.45312 -2.234375,0.45312 -1.984375,0 -3.203125,-1.29687 -1.21875,-1.29688 -1.234375,-3.28125 0,-1.98438 1.234375,-3.26563 1.25,-1.29687 3.25,-1.32812 z m 2.5625,3.79687 q -0.04687,-1.125 -0.734375,-1.78125 -0.671875,-0.67187 -1.90625,-0.67187 -1.125,0 -1.890625,0.64062 -0.765625,0.625 -0.953125,1.8125 z m 8.122879,-3.79687 q 0.32813,0 0.59375,0.0937 l -0.0937,1.46875 q -0.40625,-0.10938 -0.78125,-0.10938 -1.265625,0 -1.921875,0.82813 -0.640625,0.82812 -0.640625,2.34375 v 4.32812 H 72.91083 v -6.79687 q 0,-0.25 -0.0625,-1.9375 h 1.375 q 0.03125,1.3125 0.03125,1.4375 h 0.04687 q 0.34375,-0.75 1.140625,-1.20313 0.796875,-0.45312 1.765625,-0.45312 z m 11.28468,-5.375 q 0.73438,0 1.14063,0.21875 l -0.20313,1.3125 q -0.53125,-0.1875 -0.98437,-0.1875 -0.92188,0 -1.25,0.53125 -0.32813,0.53125 -0.32813,1.76562 v 1.95313 h 2.125 v 1.23437 h -2.125 v 7.5 h -1.45312 v -7.5 h -1.90625 v -1.23437 h 1.90625 v -1.96875 q 0,-3.625 3.07812,-3.625 z m 6.22048,5.375 q 2.03125,0 3.3125,1.26562 1.29687,1.25 1.34375,3.32813 0,1.98437 -1.3125,3.26562 -1.29688,1.28125 -3.34375,1.3125 -2.0625,0 -3.34375,-1.29687 -1.28125,-1.29688 -1.32813,-3.28125 0,-2.01563 1.29688,-3.29688 1.3125,-1.28125 3.375,-1.29687 z m -3.10938,4.59375 q 0,1.4375 0.85938,2.32812 0.875,0.875 2.25,0.90625 1.35937,0 2.21875,-0.89062 0.85937,-0.90625 0.875,-2.34375 0,-1.42188 -0.875,-2.32813 -0.85938,-0.92187 -2.25,-0.92187 -1.34375,0 -2.20313,0.90625 -0.84375,0.90625 -0.875,2.34375 z m 14.316195,-4.59375 q 0.32813,0 0.59375,0.0937 l -0.0937,1.46875 q -0.40625,-0.10938 -0.78125,-0.10938 -1.26563,0 -1.92188,0.82813 -0.64062,0.82812 -0.64062,2.34375 v 4.32812 h -1.45313 v -6.79687 q 0,-0.25 -0.0625,-1.9375 h 1.375 q 0.0312,1.3125 0.0312,1.4375 h 0.0469 q 0.34375,-0.75 1.14062,-1.20313 0.79688,-0.45312 1.76563,-0.45312 z"
       id="path384"
       inkscape:connector-curvature="0"
       style="fill:#ffffff;fill-rule:nonzero" />
    <path
       d="m 16.593748,129.54521 q 1.546875,0 2.734375,0.5625 1.203125,0.54687 1.921875,1.51562 l -1.359375,0.98438 q -0.59375,-0.79688 -1.46875,-1.20313 -0.875,-0.40625 -1.828125,-0.40625 -2.109375,0 -3.5625,1.60938 -1.4375,1.60937 -1.46875,3.875 0,2.35937 1.421875,3.92187 1.4375,1.54688 3.609375,1.5625 2.375,0 3.828125,-1.84375 l 1.171875,0.98438 q -1.734375,2.3125 -5,2.3125 -2.890625,0 -4.78125,-1.98438 -1.890625,-2 -1.9375,-4.95312 0,-2.9375 1.90625,-4.90625 1.921875,-1.98438 4.8125,-2.03125 z m 11.087128,4.59375 q 2.03125,0 3.3125,1.26562 1.296875,1.25 1.34375,3.32813 0,1.98437 -1.3125,3.26562 -1.296875,1.28125 -3.34375,1.3125 -2.0625,0 -3.34375,-1.29687 -1.28125,-1.29688 -1.328125,-3.28125 0,-2.01563 1.296875,-3.29688 1.3125,-1.28125 3.375,-1.29687 z m -3.109375,4.59375 q 0,1.4375 0.859375,2.32812 0.875,0.875 2.25,0.90625 1.359375,0 2.21875,-0.89062 0.859375,-0.90625 0.875,-2.34375 0,-1.42188 -0.875,-2.32813 -0.859375,-0.92187 -2.25,-0.92187 -1.34375,0 -2.203125,0.90625 -0.84375,0.90625 -0.875,2.34375 z m 14.581818,-4.59375 q 2.0625,0 3.3125,1.3125 1.25,1.29687 1.265625,3.28125 0,1.95312 -1.265625,3.25 -1.265625,1.29687 -3.09375,1.32812 -1.125,0 -2.03125,-0.48437 -0.890625,-0.48438 -1.328125,-1.28125 h -0.03125 v 5.79687 h -1.453125 v -12.98437 h 1.453125 v 1.26562 h 0.03125 q 1.28125,-1.48437 3.140625,-1.48437 z m -3.171875,4.59375 q 0,1.4375 0.859375,2.32812 0.875,0.875 2.234375,0.90625 1.359375,0 2.21875,-0.89062 0.859375,-0.90625 0.875,-2.34375 0,-1.42188 -0.875,-2.32813 -0.859375,-0.92187 -2.234375,-0.92187 -1.34375,0 -2.203125,0.90625 -0.859375,0.90625 -0.875,2.34375 z m 10.867722,-8.84375 q 0.4375,0 0.75,0.3125 0.3125,0.29687 0.3125,0.75 0,0.46875 -0.296875,0.76562 -0.296875,0.29688 -0.765625,0.29688 -0.46875,0 -0.765625,-0.29688 -0.296875,-0.29687 -0.296875,-0.76562 0,-0.45313 0.3125,-0.75 0.328125,-0.3125 0.75,-0.3125 z m 0.734375,4.46875 v 8.73437 h -1.453125 v -8.73437 z m 4.477509,-5.375 v 14.10937 h -1.453125 v -14.10937 z m 7.055633,5.15625 q 2.03125,0 3.3125,1.26562 1.296875,1.25 1.34375,3.32813 0,1.98437 -1.3125,3.26562 -1.296875,1.28125 -3.34375,1.3125 -2.0625,0 -3.34375,-1.29687 -1.28125,-1.29688 -1.328125,-3.28125 0,-2.01563 1.296875,-3.29688 1.3125,-1.28125 3.375,-1.29687 z m -3.109375,4.59375 q 0,1.4375 0.859375,2.32812 0.875,0.875 2.25,0.90625 1.359375,0 2.21875,-0.89062 0.859375,-0.90625 0.875,-2.34375 0,-1.42188 -0.875,-2.32813 -0.859375,-0.92187 -2.25,-0.92187 -1.34375,0 -2.203125,0.90625 -0.84375,0.90625 -0.875,2.34375 z m 12.222443,-6.85938 v 2.48438 h 2.578125 v 1.23437 h -2.578125 v 4.67188 q 0,1.03125 0.328125,1.375 0.34375,0.32812 0.984375,0.32812 0.71875,0 1.28125,-0.29687 l 0.0625,1.32812 q -0.75,0.3125 -1.703125,0.3125 -1.34375,0 -1.875,-0.65625 -0.53125,-0.65625 -0.53125,-2.17187 v -4.89063 h -1.90625 v -1.23437 h 1.90625 v -2.48438 z"
       id="path386"
       inkscape:connector-curvature="0"
       style="fill:#ffffff;fill-rule:nonzero" />
    <path
       d="M 189.28844,86.54216 H 310.4223 v 77.25983 H 189.28844 Z"
       id="path388"
       inkscape:connector-curvature="0"
       style="fill:#074284;fill-rule:evenodd" />
    <path
       d="M 189.28844,86.54216 H 310.4223 v 77.25983 H 189.28844 Z"
       id="path390"
       inkscape:connector-curvature="0"
       style="fill-rule:evenodd;stroke:#1c4587;stroke-width:1;stroke-linecap:butt;stroke-linejoin:round" />
    <path
       d="m 203.78844,107.54521 q 2.40625,0 3.70312,1.54687 l -1.29687,1.125 q -0.75,-1.17187 -2.40625,-1.21875 -1.25,0 -2.03125,0.60938 -0.78125,0.59375 -0.78125,1.60937 0,0.90625 0.59375,1.4375 0.59375,0.51563 2.23437,1.01563 2.14063,0.60937 3.01563,1.5 0.89062,0.89062 0.89062,2.39062 0,1.76563 -1.3125,2.8125 -1.29687,1.03125 -3.32812,1.04688 -1.35938,0 -2.4375,-0.48438 -1.0625,-0.48437 -1.64063,-1.34375 l 1.34375,-1.09375 q 0.4375,0.70313 1.20313,1.09375 0.76562,0.375 1.625,0.375 1.17187,0 2.01562,-0.65625 0.85938,-0.65625 0.85938,-1.64062 0,-0.875 -0.5,-1.375 -0.5,-0.5 -1.64063,-0.85938 l -1.5,-0.5 q -1.70312,-0.57812 -2.40625,-1.4375 -0.70312,-0.875 -0.70312,-2.14062 0,-1.6875 1.25,-2.73438 1.25,-1.0625 3.25,-1.07812 z m 7.701,4.8125 v 5.29687 q 0,1.01563 0.46875,1.65625 0.48438,0.64063 1.53125,0.65625 1.34375,0 2.01563,-0.89062 0.6875,-0.89063 0.6875,-2.39063 v -4.32812 h 1.46875 v 6.79687 q 0.0156,0.51563 0.0625,1.9375 h -1.375 q -0.0156,-0.89062 -0.0312,-1.4375 h -0.0469 q -0.32812,0.73438 -1.125,1.20313 -0.79687,0.45312 -1.79687,0.45312 -1.60938,-0.0156 -2.46875,-0.95312 -0.84375,-0.9375 -0.84375,-2.53125 v -5.46875 z m 13.21663,-0.21875 q 0.32813,0 0.59375,0.0937 l -0.0937,1.46875 q -0.40625,-0.10938 -0.78125,-0.10938 -1.26562,0 -1.92187,0.82813 -0.64063,0.82812 -0.64063,2.34375 v 4.32812 h -1.45312 v -6.79687 q 0,-0.25 -0.0625,-1.9375 h 1.375 q 0.0312,1.3125 0.0312,1.4375 h 0.0469 q 0.34375,-0.75 1.14063,-1.20313 0.79687,-0.45312 1.76562,-0.45312 z m 2.78575,0.21875 2.71875,6.84375 h 0.0312 l 2.59375,-6.84375 h 1.5781 l -3.45311,8.73437 h -1.60937 l -3.5625,-8.73437 z m 12.46105,-0.21875 q 1.9375,0 3.03125,1.21875 1.09375,1.21875 1.10938,3.46875 v 0.34375 h -7.0625 q 0.125,1.21875 0.92187,2 0.79688,0.78125 1.95313,0.79687 1.78125,0 2.76562,-1.3125 l 1.09375,0.85938 q -0.6875,0.89062 -1.625,1.34375 -0.92187,0.45312 -2.23437,0.45312 -1.98438,0 -3.20313,-1.29687 -1.21875,-1.29688 -1.23437,-3.28125 0,-1.98438 1.23437,-3.26563 1.25,-1.29687 3.25,-1.32812 z m 2.5625,3.79687 q -0.0469,-1.125 -0.73437,-1.78125 -0.67188,-0.67187 -1.90625,-0.67187 -1.125,0 -1.89063,0.64062 -0.76562,0.625 -0.95312,1.8125 z m 4.34164,-3.57812 2.70313,6.84375 h 0.0312 l 2.59375,-6.84375 h 1.59375 l -4.28125,10.875 q -0.5,1.3125 -1.14063,1.82812 -0.64062,0.51563 -1.71875,0.51563 -0.79687,0 -1.29687,-0.23438 l 0.1875,-1.26562 q 0.26562,0.15625 1.07812,0.15625 1.04688,0 1.51563,-1.29688 l 0.65625,-1.78125 -3.625,-8.79687 z"
       id="path392"
       inkscape:connector-curvature="0"
       style="fill:#ffffff;fill-rule:nonzero" />
    <path
       d="m 203.78844,129.54521 q 2.40625,0 3.70312,1.54687 l -1.29687,1.125 q -0.75,-1.17187 -2.40625,-1.21875 -1.25,0 -2.03125,0.60938 -0.78125,0.59375 -0.78125,1.60937 0,0.90625 0.59375,1.4375 0.59375,0.51563 2.23437,1.01563 2.14063,0.60937 3.01563,1.5 0.89062,0.89062 0.89062,2.39062 0,1.76563 -1.3125,2.8125 -1.29687,1.03125 -3.32812,1.04688 -1.35938,0 -2.4375,-0.48438 -1.0625,-0.48437 -1.64063,-1.34375 l 1.34375,-1.09375 q 0.4375,0.70313 1.20313,1.09375 0.76562,0.375 1.625,0.375 1.17187,0 2.01562,-0.65625 0.85938,-0.65625 0.85938,-1.64062 0,-0.875 -0.5,-1.375 -0.5,-0.5 -1.64063,-0.85938 l -1.5,-0.5 q -1.70312,-0.57812 -2.40625,-1.4375 -0.70312,-0.875 -0.70312,-2.14062 0,-1.6875 1.25,-2.73438 1.25,-1.0625 3.25,-1.07812 z m 8.451,2.32812 v 2.48438 h 2.57813 v 1.23437 h -2.57813 v 4.67188 q 0,1.03125 0.32813,1.375 0.34375,0.32812 0.98437,0.32812 0.71875,0 1.28125,-0.29687 l 0.0625,1.32812 q -0.75,0.3125 -1.70312,0.3125 -1.34375,0 -1.875,-0.65625 -0.53125,-0.65625 -0.53125,-2.17187 v -4.89063 h -1.90625 v -1.23437 h 1.90625 v -2.48438 z m 5.81701,2.48438 v 5.29687 q 0,1.01563 0.46875,1.65625 0.48437,0.64063 1.53125,0.65625 1.34375,0 2.01562,-0.89062 0.6875,-0.89063 0.6875,-2.39063 v -4.32812 h 1.46875 v 6.79687 q 0.0156,0.51563 0.0625,1.9375 h -1.375 q -0.0156,-0.89062 -0.0312,-1.4375 h -0.0469 q -0.32812,0.73438 -1.125,1.20313 -0.79687,0.45312 -1.79687,0.45312 -1.60938,-0.0156 -2.46875,-0.95312 -0.84375,-0.9375 -0.84375,-2.53125 v -5.46875 z m 17.63848,-5.375 v 14.10937 h -1.45312 v -1.54687 h -0.0469 q -0.4375,0.84375 -1.35936,1.3125 -0.90625,0.45312 -1.98437,0.45312 -1.85938,0 -3.09375,-1.3125 -1.23438,-1.3125 -1.28125,-3.26562 0,-2 1.28125,-3.28125 1.28125,-1.29688 3.3125,-1.3125 1.875,0 3.12498,1.48437 h 0.0469 v -6.64062 z m -7.65623,9.75 q 0,1.4375 0.85937,2.32812 0.875,0.89063 2.25,0.90625 1.35938,0 2.20313,-0.89062 0.84373,-0.89063 0.89061,-2.34375 0,-1.42188 -0.87499,-2.32813 -0.85937,-0.92187 -2.25,-0.92187 -1.34375,0 -2.1875,0.90625 -0.84375,0.90625 -0.89062,2.34375 z m 14.32085,-4.59375 q 1.9375,0 3.03125,1.21875 1.09375,1.21875 1.10938,3.46875 v 0.34375 h -7.0625 q 0.125,1.21875 0.92187,2 0.79688,0.78125 1.95313,0.79687 1.78125,0 2.76562,-1.3125 l 1.09375,0.85938 q -0.6875,0.89062 -1.625,1.34375 -0.92187,0.45312 -2.23437,0.45312 -1.98438,0 -3.20313,-1.29687 -1.21875,-1.29688 -1.23437,-3.28125 0,-1.98438 1.23437,-3.26563 1.25,-1.29687 3.25,-1.32812 z m 2.5625,3.79687 q -0.0469,-1.125 -0.73437,-1.78125 -0.67188,-0.67187 -1.90625,-0.67187 -1.125,0 -1.89063,0.64062 -0.76562,0.625 -0.95312,1.8125 z m 8.12286,-3.79687 q 1.64063,0 2.48438,0.95312 0.84375,0.95313 0.84375,2.53125 v 5.46875 h -1.46875 v -5.29687 q 0,-1.01563 -0.46875,-1.65625 -0.45313,-0.64063 -1.51563,-0.65625 -1.34375,0 -2.03125,0.89062 -0.6875,0.875 -0.6875,2.45313 v 4.26562 h -1.45312 v -6.79687 q 0,-0.0937 -0.0625,-1.9375 h 1.375 q 0.0312,1.3125 0.0312,1.4375 h 0.0469 q 0.34375,-0.75 1.14063,-1.20313 0.79687,-0.45312 1.76562,-0.45312 z m 8.27914,-2.26563 v 2.48438 h 2.57813 v 1.23437 h -2.57813 v 4.67188 q 0,1.03125 0.32813,1.375 0.34375,0.32812 0.98437,0.32812 0.71875,0 1.28125,-0.29687 l 0.0625,1.32812 q -0.75,0.3125 -1.70312,0.3125 -1.34375,0 -1.875,-0.65625 -0.53125,-0.65625 -0.53125,-2.17187 v -4.89063 h -1.90625 v -1.23437 h 1.90625 v -2.48438 z m 7.03574,2.26563 q 2.09375,0.0156 2.96875,1.57812 l -1.21875,0.8125 q -0.625,-1.04687 -1.84375,-1.04687 -0.71875,0 -1.21875,0.34375 -0.5,0.32812 -0.5,0.85937 0,0.89063 2.1875,1.28125 1.5625,0.28125 2.21875,0.92188 0.65625,0.625 0.65625,1.6875 0,1.28125 -0.95312,2.01562 -0.95313,0.71875 -2.53125,0.71875 -1.23438,0 -2.03125,-0.39062 -0.79688,-0.39063 -1.375,-1.23438 l 1.15625,-0.89062 q 0.54687,0.65625 1.0625,0.92187 0.53125,0.25 1.1875,0.25 0.82812,0 1.375,-0.35937 0.54687,-0.35938 0.54687,-0.98438 0,-0.625 -0.57812,-0.9375 -0.5625,-0.32812 -1.89063,-0.59375 -1.3125,-0.26562 -1.90625,-0.82812 -0.57812,-0.5625 -0.57812,-1.54688 0,-1.10937 0.90625,-1.82812 0.90625,-0.73438 2.35937,-0.75 z"
       id="path394"
       inkscape:connector-curvature="0"
       style="fill:#ffffff;fill-rule:nonzero" />
    <path
       d="m 519.61145,86.54216 h 121.13386 v 77.25983 H 519.61145 Z"
       id="path396"
       inkscape:connector-curvature="0"
       style="fill:#074284;fill-rule:evenodd" />
    <path
       d="m 519.61145,86.54216 h 121.13386 v 77.25983 H 519.61145 Z"
       id="path398"
       inkscape:connector-curvature="0"
       style="fill-rule:evenodd;stroke:#1c4587;stroke-width:1;stroke-linecap:butt;stroke-linejoin:round" />
    <path
       d="m 539.11145,107.88896 v 1.45312 h -4.35938 v 11.75 h -1.5625 v -11.75 h -4.375 v -1.45312 z m 3.49609,4.25 q 1.9375,0 3.03125,1.21875 1.09375,1.21875 1.10938,3.46875 v 0.34375 h -7.0625 q 0.125,1.21875 0.92187,2 0.79688,0.78125 1.95313,0.79687 1.78125,0 2.76562,-1.3125 l 1.09375,0.85938 q -0.6875,0.89062 -1.625,1.34375 -0.92187,0.45312 -2.23437,0.45312 -1.98438,0 -3.20313,-1.29687 -1.21875,-1.29688 -1.23437,-3.28125 0,-1.98438 1.23437,-3.26563 1.25,-1.29687 3.25,-1.32812 z m 2.5625,3.79687 q -0.0469,-1.125 -0.73437,-1.78125 -0.67188,-0.67187 -1.90625,-0.67187 -1.125,0 -1.89063,0.64062 -0.76562,0.625 -0.95312,1.8125 z m 6.49787,-3.79687 q 2.09375,0.0156 2.96875,1.57812 l -1.21875,0.8125 q -0.625,-1.04687 -1.84375,-1.04687 -0.71875,0 -1.21875,0.34375 -0.5,0.32812 -0.5,0.85937 0,0.89063 2.1875,1.28125 1.5625,0.28125 2.21875,0.92188 0.65625,0.625 0.65625,1.6875 0,1.28125 -0.95313,2.01562 -0.95312,0.71875 -2.53125,0.71875 -1.23437,0 -2.03125,-0.39062 -0.79687,-0.39063 -1.375,-1.23438 l 1.15625,-0.89062 q 0.54688,0.65625 1.0625,0.92187 0.53125,0.25 1.1875,0.25 0.82813,0 1.375,-0.35937 0.54688,-0.35938 0.54688,-0.98438 0,-0.625 -0.57813,-0.9375 -0.5625,-0.32812 -1.89062,-0.59375 -1.3125,-0.26562 -1.90625,-0.82812 -0.57813,-0.5625 -0.57813,-1.54688 0,-1.10937 0.90625,-1.82812 0.90625,-0.73438 2.35938,-0.75 z m 7.47883,-2.26563 v 2.48438 h 2.57812 v 1.23437 h -2.57812 v 4.67188 q 0,1.03125 0.32812,1.375 0.34375,0.32812 0.98438,0.32812 0.71875,0 1.28125,-0.29687 l 0.0625,1.32812 q -0.75,0.3125 -1.70313,0.3125 -1.34375,0 -1.875,-0.65625 -0.53125,-0.65625 -0.53125,-2.17187 v -4.89063 h -1.90625 v -1.23437 h 1.90625 v -2.48438 z m 15.95654,-2.32812 q 2.98438,0 4.92188,1.96875 1.9375,1.95312 1.98437,4.96875 -0.0312,3.07812 -2.01562,5 -1.96875,1.92187 -4.89063,1.9375 -2.98437,0 -4.92187,-1.95313 -1.9375,-1.96875 -1.98438,-4.98437 0,-2.98438 1.9375,-4.9375 1.9375,-1.95313 4.96875,-2 z m -5.21875,6.9375 q 0,2.375 1.48438,3.92187 1.5,1.53125 3.73437,1.5625 2.23438,0 3.70313,-1.5625 1.48437,-1.5625 1.51562,-3.92187 0,-2.29688 -1.45312,-3.85938 -1.45313,-1.57812 -3.78125,-1.625 -2.28125,0.0156 -3.73438,1.59375 -1.4375,1.57813 -1.46875,3.89063 z m 15.82494,-2.125 v 5.29687 q 0,1.01563 0.46875,1.65625 0.48438,0.64063 1.53125,0.65625 1.34375,0 2.01563,-0.89062 0.6875,-0.89063 0.6875,-2.39063 v -4.32812 h 1.46875 v 6.79687 q 0.0156,0.51563 0.0625,1.9375 h -1.375 q -0.0156,-0.89062 -0.0312,-1.4375 h -0.0469 q -0.32812,0.73438 -1.125,1.20313 -0.79687,0.45312 -1.79687,0.45312 -1.60938,-0.0156 -2.46875,-0.95312 -0.84375,-0.9375 -0.84375,-2.53125 v -5.46875 z m 11.12288,-2.48438 v 2.48438 h 2.57812 v 1.23437 h -2.57812 v 4.67188 q 0,1.03125 0.32812,1.375 0.34375,0.32812 0.98438,0.32812 0.71875,0 1.28125,-0.29687 l 0.0625,1.32812 q -0.75,0.3125 -1.70313,0.3125 -1.34375,0 -1.875,-0.65625 -0.53125,-0.65625 -0.53125,-2.17187 v -4.89063 h -1.90625 v -1.23437 h 1.90625 v -2.48438 z"
       id="path400"
       inkscape:connector-curvature="0"
       style="fill:#ffffff;fill-rule:nonzero" />
    <path
       d="m 534.26769,129.88896 q 2.125,0 3.3125,0.92187 1.1875,0.90625 1.21875,2.6875 0,1.73438 -1.15625,2.6875 -1.15625,0.9375 -3.09375,0.96875 h -2.73437 v 5.9375 h -1.5625 v -13.20312 z m 0.28125,5.8125 q 1.1875,0 1.875,-0.57813 0.6875,-0.57812 0.6875,-1.60937 0,-1.01563 -0.6875,-1.59375 -0.67187,-0.57813 -1.875,-0.57813 h -2.73437 v 4.35938 z m 10.79755,-1.5625 q 0.32813,0 0.59375,0.0937 l -0.0937,1.46875 q -0.40625,-0.10938 -0.78125,-0.10938 -1.26563,0 -1.92188,0.82813 -0.64062,0.82812 -0.64062,2.34375 v 4.32812 h -1.45313 v -6.79687 q 0,-0.25 -0.0625,-1.9375 h 1.375 q 0.0312,1.3125 0.0312,1.4375 h 0.0469 q 0.34375,-0.75 1.14062,-1.20313 0.79688,-0.45312 1.76563,-0.45312 z m 5.62951,0 q 1.90625,0 2.76563,0.90625 0.875,0.89062 0.89062,2.6875 v 3.92187 q 0,0.5625 0.14063,1.4375 h -1.40625 q -0.0937,-0.17187 -0.0937,-1.3125 h -0.0312 q -1,1.5 -2.875,1.53125 -1.4375,0 -2.34375,-0.71875 -0.90625,-0.71875 -0.90625,-1.875 0,-1.57812 1.29687,-2.3125 1.3125,-0.73437 4.09375,-0.73437 h 0.67188 v -0.25 q 0,-1.90625 -2.15625,-1.9375 -1.57813,0 -2.59375,0.95312 l -0.92188,-0.95312 q 1.34375,-1.3125 3.46875,-1.34375 z m -2.29687,6.4375 q 0,1.46875 1.92187,1.51562 1.14063,0 1.85938,-0.73437 0.71875,-0.73438 0.71875,-2.125 v -0.34375 h -1.60938 q -1.28125,0 -2.07812,0.42187 -0.78125,0.40625 -0.8125,1.26563 z m 12.6513,-6.4375 q 2.07813,0 3.34375,1.375 l -1.15625,1.03125 q -0.875,-1.0625 -2.20312,-1.0625 -1.35938,0 -2.15625,0.89062 -0.79688,0.875 -0.79688,2.35938 0,1.39062 0.84375,2.3125 0.85938,0.90625 2.10938,0.92187 1.4375,0 2.21875,-1.07812 l 1.07812,1.03125 q -1.20312,1.375 -3.29687,1.39062 -2,-0.0156 -3.23438,-1.26562 -1.23437,-1.25 -1.28125,-3.3125 0.0156,-2.09375 1.29688,-3.34375 1.29687,-1.25 3.23437,-1.25 z m 7.16419,-2.26563 v 2.48438 h 2.57812 v 1.23437 h -2.57812 v 4.67188 q 0,1.03125 0.32812,1.375 0.34375,0.32812 0.98438,0.32812 0.71875,0 1.28125,-0.29687 l 0.0625,1.32812 q -0.75,0.3125 -1.70313,0.3125 -1.34375,0 -1.875,-0.65625 -0.53125,-0.65625 -0.53125,-2.17187 v -4.89063 h -1.90625 v -1.23437 h 1.90625 v -2.48438 z m 5.22326,-1.98437 q 0.4375,0 0.75,0.3125 0.3125,0.29687 0.3125,0.75 0,0.46875 -0.29687,0.76562 -0.29688,0.29688 -0.76563,0.29688 -0.46875,0 -0.76562,-0.29688 -0.29688,-0.29687 -0.29688,-0.76562 0,-0.45313 0.3125,-0.75 0.32813,-0.3125 0.75,-0.3125 z m 0.73438,4.46875 v 8.73437 h -1.45313 v -8.73437 z m 6.91504,-0.21875 q 2.07812,0 3.34375,1.375 l -1.15625,1.03125 q -0.875,-1.0625 -2.20313,-1.0625 -1.35937,0 -2.15625,0.89062 -0.79687,0.875 -0.79687,2.35938 0,1.39062 0.84375,2.3125 0.85937,0.90625 2.10937,0.92187 1.4375,0 2.21875,-1.07812 l 1.07813,1.03125 q -1.20313,1.375 -3.29688,1.39062 -2,-0.0156 -3.23437,-1.26562 -1.23438,-1.25 -1.28125,-3.3125 0.0156,-2.09375 1.29687,-3.34375 1.29688,-1.25 3.23438,-1.25 z m 8.94543,0 q 1.9375,0 3.03125,1.21875 1.09375,1.21875 1.10938,3.46875 v 0.34375 h -7.0625 q 0.125,1.21875 0.92187,2 0.79688,0.78125 1.95313,0.79687 1.78125,0 2.76562,-1.3125 l 1.09375,0.85938 q -0.6875,0.89062 -1.625,1.34375 -0.92187,0.45312 -2.23437,0.45312 -1.98438,0 -3.20313,-1.29687 -1.21875,-1.29688 -1.23437,-3.28125 0,-1.98438 1.23437,-3.26563 1.25,-1.29687 3.25,-1.32812 z m 2.5625,3.79687 q -0.0469,-1.125 -0.73437,-1.78125 -0.67188,-0.67187 -1.90625,-0.67187 -1.125,0 -1.89063,0.64062 -0.76562,0.625 -0.95312,1.8125 z m 6.49787,-3.79687 q 2.09375,0.0156 2.96875,1.57812 l -1.21875,0.8125 q -0.625,-1.04687 -1.84375,-1.04687 -0.71875,0 -1.21875,0.34375 -0.5,0.32812 -0.5,0.85937 0,0.89063 2.1875,1.28125 1.5625,0.28125 2.21875,0.92188 0.65625,0.625 0.65625,1.6875 0,1.28125 -0.95313,2.01562 -0.95312,0.71875 -2.53125,0.71875 -1.23437,0 -2.03125,-0.39062 -0.79687,-0.39063 -1.375,-1.23438 l 1.15625,-0.89062 q 0.54688,0.65625 1.0625,0.92187 0.53125,0.25 1.1875,0.25 0.82813,0 1.375,-0.35937 0.54688,-0.35938 0.54688,-0.98438 0,-0.625 -0.57813,-0.9375 -0.5625,-0.32812 -1.89062,-0.59375 -1.3125,-0.26562 -1.90625,-0.82812 -0.57813,-0.5625 -0.57813,-1.54688 0,-1.10937 0.90625,-1.82812 0.90625,-0.73438 2.35938,-0.75 z"
       id="path402"
       inkscape:connector-curvature="0"
       style="fill:#ffffff;fill-rule:nonzero" />
    <path
       d="m 684.09631,86.54216 h 232.69292 v 77.25983 H 684.09631 Z"
       id="path404"
       inkscape:connector-curvature="0"
       style="fill:#074284;fill-rule:evenodd" />
    <path
       d="m 684.09631,86.54216 h 232.69292 v 77.25983 H 684.09631 Z"
       id="path406"
       inkscape:connector-curvature="0"
       style="fill-rule:evenodd;stroke:#1c4587;stroke-width:1;stroke-linecap:butt;stroke-linejoin:round" />
    <path
       d="m 696.29945,107.88896 v 13.20312 h -1.5625 v -13.20312 z m 7.33502,4.25 q 2,0 2.75,1.65625 0.51563,-0.85938 1.17188,-1.25 0.65625,-0.40625 1.60937,-0.40625 1.6875,0 2.48438,0.89062 0.8125,0.875 0.8125,2.67188 v 5.39062 h -1.45313 v -5.28125 q 0,-2.29687 -2.125,-2.32812 -1,0 -1.64062,0.73437 -0.625,0.73438 -0.625,1.78125 v 5.09375 h -1.45313 v -5.0625 q 0,-1.28125 -0.375,-1.90625 -0.375,-0.64062 -1.32812,-0.64062 -1.3125,0 -2,0.89062 -0.6875,0.875 -0.6875,2.45313 v 4.26562 h -1.45313 v -6.79687 q -0.0156,-0.64063 -0.0625,-1.9375 h 1.375 q 0.0312,1.29687 0.0312,1.4375 h 0.0469 q 0.34375,-0.75 1.125,-1.20313 0.79687,-0.45312 1.79687,-0.45312 z m 16.14514,0 q 2.0625,0 3.3125,1.3125 1.25,1.29687 1.26563,3.28125 0,1.95312 -1.26563,3.25 -1.26562,1.29687 -3.09375,1.32812 -1.125,0 -2.03125,-0.48437 -0.89062,-0.48438 -1.32812,-1.28125 h -0.0312 v 5.79687 h -1.45313 v -12.98437 h 1.45313 v 1.26562 h 0.0312 q 1.28125,-1.48437 3.14062,-1.48437 z m -3.17187,4.59375 q 0,1.4375 0.85937,2.32812 0.875,0.875 2.23438,0.90625 1.35937,0 2.21875,-0.89062 0.85937,-0.90625 0.875,-2.34375 0,-1.42188 -0.875,-2.32813 -0.85938,-0.92187 -2.23438,-0.92187 -1.34375,0 -2.20312,0.90625 -0.85938,0.90625 -0.875,2.34375 z m 14.30517,-4.59375 q 0.32813,0 0.59375,0.0937 l -0.0937,1.46875 q -0.40625,-0.10938 -0.78125,-0.10938 -1.26562,0 -1.92187,0.82813 -0.64063,0.82812 -0.64063,2.34375 v 4.32812 h -1.45312 v -6.79687 q 0,-0.25 -0.0625,-1.9375 h 1.375 q 0.0312,1.3125 0.0312,1.4375 h 0.0469 q 0.34375,-0.75 1.14063,-1.20313 0.79687,-0.45312 1.76562,-0.45312 z m 6.10602,0 q 2.03125,0 3.3125,1.26562 1.29688,1.25 1.34375,3.32813 0,1.98437 -1.3125,3.26562 -1.29687,1.28125 -3.34375,1.3125 -2.0625,0 -3.34375,-1.29687 -1.28125,-1.29688 -1.32812,-3.28125 0,-2.01563 1.29687,-3.29688 1.3125,-1.28125 3.375,-1.29687 z m -3.10937,4.59375 q 0,1.4375 0.85937,2.32812 0.875,0.875 2.25,0.90625 1.35938,0 2.21875,-0.89062 0.85938,-0.90625 0.875,-2.34375 0,-1.42188 -0.875,-2.32813 -0.85937,-0.92187 -2.25,-0.92187 -1.34375,0 -2.20312,0.90625 -0.84375,0.90625 -0.875,2.34375 z m 10.53497,-4.375 2.71875,6.84375 h 0.0312 l 2.59375,-6.84375 h 1.57813 l -3.45313,8.73437 h -1.60937 l -3.5625,-8.73437 z m 12.46106,-0.21875 q 1.9375,0 3.03125,1.21875 1.09375,1.21875 1.10938,3.46875 v 0.34375 h -7.0625 q 0.125,1.21875 0.92187,2 0.79688,0.78125 1.95313,0.79687 1.78125,0 2.76562,-1.3125 l 1.09375,0.85938 q -0.6875,0.89062 -1.625,1.34375 -0.92187,0.45312 -2.23437,0.45312 -1.98438,0 -3.20313,-1.29687 -1.21875,-1.29688 -1.23437,-3.28125 0,-1.98438 1.23437,-3.26563 1.25,-1.29687 3.25,-1.32812 z m 2.5625,3.79687 q -0.0469,-1.125 -0.73437,-1.78125 -0.67188,-0.67187 -1.90625,-0.67187 -1.125,0 -1.89063,0.64062 -0.76562,0.625 -0.95312,1.8125 z m 15.41864,-8.39062 q 2.98438,0 4.92188,1.96875 1.9375,1.95312 1.98437,4.96875 -0.0312,3.07812 -2.01562,5 -1.96875,1.92187 -4.89063,1.9375 -2.98437,0 -4.92187,-1.95313 -1.9375,-1.96875 -1.98438,-4.98437 0,-2.98438 1.9375,-4.9375 1.9375,-1.95313 4.96875,-2 z m -5.21875,6.9375 q 0,2.375 1.48438,3.92187 1.5,1.53125 3.73437,1.5625 2.23438,0 3.70313,-1.5625 1.48437,-1.5625 1.51562,-3.92187 0,-2.29688 -1.45312,-3.85938 -1.45313,-1.57812 -3.78125,-1.625 -2.28125,0.0156 -3.73438,1.59375 -1.4375,1.57813 -1.46875,3.89063 z m 15.82495,-2.125 v 5.29687 q 0,1.01563 0.46875,1.65625 0.48438,0.64063 1.53125,0.65625 1.34375,0 2.01563,-0.89062 0.6875,-0.89063 0.6875,-2.39063 v -4.32812 h 1.46875 v 6.79687 q 0.0156,0.51563 0.0625,1.9375 h -1.375 q -0.0156,-0.89062 -0.0312,-1.4375 h -0.0469 q -0.32812,0.73438 -1.125,1.20313 -0.79687,0.45312 -1.79687,0.45312 -1.60938,-0.0156 -2.46875,-0.95312 -0.84375,-0.9375 -0.84375,-2.53125 v -5.46875 z m 11.12287,-2.48438 v 2.48438 h 2.57812 v 1.23437 h -2.57812 v 4.67188 q 0,1.03125 0.32812,1.375 0.34375,0.32812 0.98438,0.32812 0.71875,0 1.28125,-0.29687 l 0.0625,1.32812 q -0.75,0.3125 -1.70313,0.3125 -1.34375,0 -1.875,-0.65625 -0.53125,-0.65625 -0.53125,-2.17187 v -4.89063 h -1.90625 v -1.23437 h 1.90625 v -2.48438 z m 8.39514,2.26563 q 2.07812,0 3.34375,1.375 l -1.15625,1.03125 q -0.875,-1.0625 -2.20313,-1.0625 -1.35937,0 -2.15625,0.89062 -0.79687,0.875 -0.79687,2.35938 0,1.39062 0.84375,2.3125 0.85937,0.90625 2.10937,0.92187 1.4375,0 2.21875,-1.07812 l 1.07813,1.03125 q -1.20313,1.375 -3.29688,1.39062 -2,-0.0156 -3.23437,-1.26562 -1.23438,-1.25 -1.28125,-3.3125 0.0156,-2.09375 1.29687,-3.34375 1.29688,-1.25 3.23438,-1.25 z m 9.13293,0 q 2.03125,0 3.3125,1.26562 1.29688,1.25 1.34375,3.32813 0,1.98437 -1.3125,3.26562 -1.29687,1.28125 -3.34375,1.3125 -2.0625,0 -3.34375,-1.29687 -1.28125,-1.29688 -1.32812,-3.28125 0,-2.01563 1.29687,-3.29688 1.3125,-1.28125 3.375,-1.29687 z m -3.10937,4.59375 q 0,1.4375 0.85937,2.32812 0.875,0.875 2.25,0.90625 1.35938,0 2.21875,-0.89062 0.85938,-0.90625 0.875,-2.34375 0,-1.42188 -0.875,-2.32813 -0.85937,-0.92187 -2.25,-0.92187 -1.34375,0 -2.20312,0.90625 -0.84375,0.90625 -0.875,2.34375 z m 14.33185,-4.59375 q 2,0 2.75,1.65625 0.51562,-0.85938 1.17187,-1.25 0.65625,-0.40625 1.60938,-0.40625 1.6875,0 2.48437,0.89062 0.8125,0.875 0.8125,2.67188 v 5.39062 h -1.45312 v -5.28125 q 0,-2.29687 -2.125,-2.32812 -1,0 -1.64063,0.73437 -0.625,0.73438 -0.625,1.78125 v 5.09375 h -1.45312 v -5.0625 q 0,-1.28125 -0.375,-1.90625 -0.375,-0.64062 -1.32813,-0.64062 -1.3125,0 -2,0.89062 -0.6875,0.875 -0.6875,2.45313 v 4.26562 h -1.45312 v -6.79687 q -0.0156,-0.64063 -0.0625,-1.9375 h 1.375 q 0.0312,1.29687 0.0312,1.4375 h 0.0469 q 0.34375,-0.75 1.125,-1.20313 0.79688,-0.45312 1.79688,-0.45312 z m 15.56695,0 q 1.9375,0 3.03125,1.21875 1.09375,1.21875 1.10938,3.46875 v 0.34375 h -7.0625 q 0.125,1.21875 0.92187,2 0.79688,0.78125 1.95313,0.79687 1.78125,0 2.76562,-1.3125 l 1.09375,0.85938 q -0.6875,0.89062 -1.625,1.34375 -0.92187,0.45312 -2.23437,0.45312 -1.98438,0 -3.20313,-1.29687 -1.21875,-1.29688 -1.23437,-3.28125 0,-1.98438 1.23437,-3.26563 1.25,-1.29687 3.25,-1.32812 z m 2.5625,3.79687 q -0.0469,-1.125 -0.73437,-1.78125 -0.67188,-0.67187 -1.90625,-0.67187 -1.125,0 -1.89063,0.64062 -0.76562,0.625 -0.95312,1.8125 z m 6.49793,-3.79687 q 2.09375,0.0156 2.96875,1.57812 l -1.21875,0.8125 q -0.625,-1.04687 -1.84375,-1.04687 -0.71875,0 -1.21875,0.34375 -0.5,0.32812 -0.5,0.85937 0,0.89063 2.1875,1.28125 1.5625,0.28125 2.21875,0.92188 0.65625,0.625 0.65625,1.6875 0,1.28125 -0.95313,2.01562 -0.95312,0.71875 -2.53125,0.71875 -1.23437,0 -2.03125,-0.39062 -0.79687,-0.39063 -1.375,-1.23438 l 1.15625,-0.89062 q 0.54688,0.65625 1.0625,0.92187 0.53125,0.25 1.1875,0.25 0.82813,0 1.375,-0.35937 0.54688,-0.35938 0.54688,-0.98438 0,-0.625 -0.57813,-0.9375 -0.5625,-0.32812 -1.89062,-0.59375 -1.3125,-0.26562 -1.90625,-0.82812 -0.57813,-0.5625 -0.57813,-1.54688 0,-1.10937 0.90625,-1.82812 0.90625,-0.73438 2.35938,-0.75 z m 13.82147,0 q 1.90625,0 2.76562,0.90625 0.875,0.89062 0.89063,2.6875 v 3.92187 q 0,0.5625 0.14062,1.4375 h -1.40625 q -0.0937,-0.17187 -0.0937,-1.3125 h -0.0312 q -1,1.5 -2.875,1.53125 -1.4375,0 -2.34375,-0.71875 -0.90625,-0.71875 -0.90625,-1.875 0,-1.57812 1.29688,-2.3125 1.3125,-0.73437 4.09375,-0.73437 h 0.67187 v -0.25 q 0,-1.90625 -2.15625,-1.9375 -1.57812,0 -2.59375,0.95312 l -0.92187,-0.95312 q 1.34375,-1.3125 3.46875,-1.34375 z m -2.29688,6.4375 q 0,1.46875 1.92188,1.51562 1.14062,0 1.85937,-0.73437 0.71875,-0.73438 0.71875,-2.125 v -0.34375 h -1.60937 q -1.28125,0 -2.07813,0.42187 -0.78125,0.40625 -0.8125,1.26563 z m 12.917,-6.4375 q 1.64062,0 2.48437,0.95312 0.84375,0.95313 0.84375,2.53125 v 5.46875 h -1.46875 v -5.29687 q 0,-1.01563 -0.46875,-1.65625 -0.45312,-0.64063 -1.51562,-0.65625 -1.34375,0 -2.03125,0.89062 -0.6875,0.875 -0.6875,2.45313 v 4.26562 h -1.45313 v -6.79687 q 0,-0.0937 -0.0625,-1.9375 h 1.375 q 0.0312,1.3125 0.0312,1.4375 h 0.0469 q 0.34375,-0.75 1.14062,-1.20313 0.79688,-0.45312 1.76563,-0.45312 z m 14.79473,-5.15625 v 14.10937 h -1.45312 v -1.54687 h -0.0469 q -0.4375,0.84375 -1.35937,1.3125 -0.90625,0.45312 -1.98438,0.45312 -1.85937,0 -3.09375,-1.3125 -1.23437,-1.3125 -1.28125,-3.26562 0,-2 1.28125,-3.28125 1.28125,-1.29688 3.3125,-1.3125 1.875,0 3.125,1.48437 h 0.0469 v -6.64062 z m -7.65625,9.75 q 0,1.4375 0.85938,2.32812 0.875,0.89063 2.25,0.90625 1.35937,0 2.20312,-0.89062 0.84375,-0.89063 0.89063,-2.34375 0,-1.42188 -0.875,-2.32813 -0.85938,-0.92187 -2.25,-0.92187 -1.34375,0 -2.1875,0.90625 -0.84375,0.90625 -0.89063,2.34375 z"
       id="path408"
       inkscape:connector-curvature="0"
       style="fill:#ffffff;fill-rule:nonzero" />
    <path
       d="m 703.03381,129.88896 v 1.45312 h -6.73437 v 4.14063 h 6.29687 v 1.45312 h -6.29687 v 4.70313 h 7.07812 v 1.45312 h -8.64062 v -13.20312 z m 3.53192,4.46875 2.3125,3.14062 2.1875,-3.14062 h 1.76563 l -3,4.03125 3.59375,4.70312 h -1.92188 l -2.75,-3.76562 -2.73437,3.76562 h -1.79688 l 3.57813,-4.70312 -3.14063,-4.03125 z m 12.85938,-0.21875 q 2.0625,0 3.3125,1.3125 1.25,1.29687 1.26562,3.28125 0,1.95312 -1.26562,3.25 -1.26563,1.29687 -3.09375,1.32812 -1.125,0 -2.03125,-0.48437 -0.89063,-0.48438 -1.32813,-1.28125 h -0.0312 v 5.79687 h -1.45312 v -12.98437 h 1.45312 v 1.26562 h 0.0312 q 1.28125,-1.48437 3.14063,-1.48437 z m -3.17188,4.59375 q 0,1.4375 0.85938,2.32812 0.875,0.875 2.23437,0.90625 1.35938,0 2.21875,-0.89062 0.85938,-0.90625 0.875,-2.34375 0,-1.42188 -0.875,-2.32813 -0.85937,-0.92187 -2.23437,-0.92187 -1.34375,0 -2.20313,0.90625 -0.85937,0.90625 -0.875,2.34375 z m 13.99274,-4.59375 q 1.9375,0 3.03125,1.21875 1.09375,1.21875 1.10937,3.46875 v 0.34375 h -7.0625 q 0.125,1.21875 0.92188,2 0.79687,0.78125 1.95312,0.79687 1.78125,0 2.76563,-1.3125 l 1.09375,0.85938 q -0.6875,0.89062 -1.625,1.34375 -0.92188,0.45312 -2.23438,0.45312 -1.98437,0 -3.20312,-1.29687 -1.21875,-1.29688 -1.23438,-3.28125 0,-1.98438 1.23438,-3.26563 1.25,-1.29687 3.25,-1.32812 z m 2.5625,3.79687 q -0.0469,-1.125 -0.73438,-1.78125 -0.67187,-0.67187 -1.90625,-0.67187 -1.125,0 -1.89062,0.64062 -0.76563,0.625 -0.95313,1.8125 z m 8.12286,-3.79687 q 0.32812,0 0.59375,0.0937 l -0.0937,1.46875 q -0.40625,-0.10938 -0.78125,-0.10938 -1.26562,0 -1.92187,0.82813 -0.64063,0.82812 -0.64063,2.34375 v 4.32812 h -1.45312 v -6.79687 q 0,-0.25 -0.0625,-1.9375 h 1.375 q 0.0312,1.3125 0.0312,1.4375 h 0.0469 q 0.34375,-0.75 1.14063,-1.20313 0.79687,-0.45312 1.76562,-0.45312 z m 3.12951,-4.25 q 0.4375,0 0.75,0.3125 0.3125,0.29687 0.3125,0.75 0,0.46875 -0.29688,0.76562 -0.29687,0.29688 -0.76562,0.29688 -0.46875,0 -0.76563,-0.29688 -0.29687,-0.29687 -0.29687,-0.76562 0,-0.45313 0.3125,-0.75 0.32812,-0.3125 0.75,-0.3125 z m 0.73437,4.46875 v 8.73437 h -1.45312 v -8.73437 z m 6.86811,-0.21875 q 1.9375,0 3.03125,1.21875 1.09375,1.21875 1.10937,3.46875 v 0.34375 h -7.0625 q 0.125,1.21875 0.92188,2 0.79687,0.78125 1.95312,0.79687 1.78125,0 2.76563,-1.3125 l 1.09375,0.85938 q -0.6875,0.89062 -1.625,1.34375 -0.92188,0.45312 -2.23438,0.45312 -1.98437,0 -3.20312,-1.29687 -1.21875,-1.29688 -1.23438,-3.28125 0,-1.98438 1.23438,-3.26563 1.25,-1.29687 3.25,-1.32812 z m 2.5625,3.79687 q -0.0469,-1.125 -0.73438,-1.78125 -0.67187,-0.67187 -1.90625,-0.67187 -1.125,0 -1.89062,0.64062 -0.76563,0.625 -0.95313,1.8125 z m 8.12286,-3.79687 q 1.64063,0 2.48438,0.95312 0.84375,0.95313 0.84375,2.53125 v 5.46875 h -1.46875 v -5.29687 q 0,-1.01563 -0.46875,-1.65625 -0.45313,-0.64063 -1.51563,-0.65625 -1.34375,0 -2.03125,0.89062 -0.6875,0.875 -0.6875,2.45313 v 4.26562 h -1.45312 v -6.79687 q 0,-0.0937 -0.0625,-1.9375 h 1.375 q 0.0312,1.3125 0.0312,1.4375 h 0.0469 q 0.34375,-0.75 1.14063,-1.20313 0.79687,-0.45312 1.76562,-0.45312 z m 10.1073,0 q 2.07813,0 3.34375,1.375 l -1.15625,1.03125 q -0.875,-1.0625 -2.20312,-1.0625 -1.35938,0 -2.15625,0.89062 -0.79688,0.875 -0.79688,2.35938 0,1.39062 0.84375,2.3125 0.85938,0.90625 2.10938,0.92187 1.4375,0 2.21875,-1.07812 l 1.07812,1.03125 q -1.20312,1.375 -3.29687,1.39062 -2,-0.0156 -3.23438,-1.26562 -1.23437,-1.25 -1.28125,-3.3125 0.0156,-2.09375 1.29688,-3.34375 1.29687,-1.25 3.23437,-1.25 z m 8.94544,0 q 1.9375,0 3.03125,1.21875 1.09375,1.21875 1.10937,3.46875 v 0.34375 h -7.0625 q 0.125,1.21875 0.92188,2 0.79687,0.78125 1.95312,0.79687 1.78125,0 2.76563,-1.3125 l 1.09375,0.85938 q -0.6875,0.89062 -1.625,1.34375 -0.92188,0.45312 -2.23438,0.45312 -1.98437,0 -3.20312,-1.29687 -1.21875,-1.29688 -1.23438,-3.28125 0,-1.98438 1.23438,-3.26563 1.25,-1.29687 3.25,-1.32812 z m 2.5625,3.79687 q -0.0469,-1.125 -0.73438,-1.78125 -0.67187,-0.67187 -1.90625,-0.67187 -1.125,0 -1.89062,0.64062 -0.76563,0.625 -0.95313,1.8125 z m 6.49786,-3.79687 q 2.09375,0.0156 2.96875,1.57812 l -1.21875,0.8125 q -0.625,-1.04687 -1.84375,-1.04687 -0.71875,0 -1.21875,0.34375 -0.5,0.32812 -0.5,0.85937 0,0.89063 2.1875,1.28125 1.5625,0.28125 2.21875,0.92188 0.65625,0.625 0.65625,1.6875 0,1.28125 -0.95312,2.01562 -0.95313,0.71875 -2.53125,0.71875 -1.23438,0 -2.03125,-0.39062 -0.79688,-0.39063 -1.375,-1.23438 l 1.15625,-0.89062 q 0.54687,0.65625 1.0625,0.92187 0.53125,0.25 1.1875,0.25 0.82812,0 1.375,-0.35937 0.54687,-0.35938 0.54687,-0.98438 0,-0.625 -0.57812,-0.9375 -0.5625,-0.32812 -1.89063,-0.59375 -1.3125,-0.26562 -1.90625,-0.82812 -0.57812,-0.5625 -0.57812,-1.54688 0,-1.10937 0.90625,-1.82812 0.90625,-0.73438 2.35937,-0.75 z"
       id="path410"
       inkscape:connector-curvature="0"
       style="fill:#ffffff;fill-rule:nonzero" />
    <path
       d="m 149.2217,117.14622 h 21.62204 v -8.02362 l 16.04724,16.04724 -16.04724,16.04724 v -8.02362 H 149.2217 Z"
       id="path412"
       inkscape:connector-curvature="0"
       style="fill:#074284;fill-rule:evenodd" />
    <path
       d="m 313.60965,117.14622 h 21.62207 v -8.02362 l 16.04724,16.04724 -16.04724,16.04724 v -8.02362 h -21.62207 z"
       id="path414"
       inkscape:connector-curvature="0"
       style="fill:#074284;fill-rule:evenodd" />
    <path
       d="m 643.6143,117.14622 h 21.62201 v -8.02362 l 16.04724,16.04724 -16.04724,16.04724 v -8.02362 H 643.6143 Z"
       id="path416"
       inkscape:connector-curvature="0"
       style="fill:#074284;fill-rule:evenodd" />
    <path
       d="m 590.593,171.22966 v 23.77557 0 c 0,10.21292 -8.27924,18.49213 -18.49213,18.49213 h -312.0916 c -4.90442,0 -9.60797,-1.94827 -13.07589,-5.4162 -3.46796,-3.46796 -5.41623,-8.17151 -5.41623,-13.07593 v -13.20865 h -4.62494 l 10.56692,-10.56692 10.56696,10.56692 h -4.62494 v 13.20865 c 0,3.64957 2.95856,6.60816 6.60812,6.60816 h 312.0916 v 0 c 3.64954,0 6.60816,-2.95859 6.60816,-6.60816 v -23.77557 z"
       id="path418"
       inkscape:connector-curvature="0"
       style="fill:#074284;fill-rule:evenodd" />
    <path
       d="m 353.79579,86.54216 h 121.13385 v 77.25983 H 353.79579 Z"
       id="path420"
       inkscape:connector-curvature="0"
       style="fill:#074284;fill-rule:evenodd" />
    <path
       d="m 353.79579,86.54216 h 121.13385 v 77.25983 H 353.79579 Z"
       id="path422"
       inkscape:connector-curvature="0"
       style="fill-rule:evenodd;stroke:#1c4587;stroke-width:1;stroke-linecap:butt;stroke-linejoin:round" />
    <path
       d="m 365.99892,107.88896 v 11.75 h 6.04687 v 1.45312 h -7.60937 v -13.20312 z m 11.48437,4.25 q 1.9375,0 3.03125,1.21875 1.09375,1.21875 1.10938,3.46875 v 0.34375 h -7.0625 q 0.125,1.21875 0.92187,2 0.79688,0.78125 1.95313,0.79687 1.78125,0 2.76562,-1.3125 l 1.09375,0.85938 q -0.6875,0.89062 -1.625,1.34375 -0.92187,0.45312 -2.23437,0.45312 -1.98438,0 -3.20313,-1.29687 -1.21875,-1.29688 -1.23437,-3.28125 0,-1.98438 1.23437,-3.26563 1.25,-1.29687 3.25,-1.32812 z m 2.5625,3.79687 q -0.0469,-1.125 -0.73437,-1.78125 -0.67188,-0.67187 -1.90625,-0.67187 -1.125,0 -1.89063,0.64062 -0.76562,0.625 -0.95312,1.8125 z m 7.18537,-3.79687 q 1.90625,0 2.76562,0.90625 0.875,0.89062 0.89063,2.6875 v 3.92187 q 0,0.5625 0.14062,1.4375 h -1.40625 q -0.0937,-0.17187 -0.0937,-1.3125 h -0.0312 q -1,1.5 -2.875,1.53125 -1.4375,0 -2.34375,-0.71875 -0.90625,-0.71875 -0.90625,-1.875 0,-1.57812 1.29688,-2.3125 1.3125,-0.73437 4.09375,-0.73437 h 0.67187 v -0.25 q 0,-1.90625 -2.15625,-1.9375 -1.57812,0 -2.59375,0.95312 l -0.92187,-0.95312 q 1.34375,-1.3125 3.46875,-1.34375 z m -2.29688,6.4375 q 0,1.46875 1.92188,1.51562 1.14062,0 1.85937,-0.73437 0.71875,-0.73438 0.71875,-2.125 v -0.34375 h -1.60937 q -1.28125,0 -2.07813,0.42187 -0.78125,0.40625 -0.8125,1.26563 z m 12.917,-6.4375 q 0.32812,0 0.59375,0.0937 l -0.0937,1.46875 q -0.40625,-0.10938 -0.78125,-0.10938 -1.26563,0 -1.92188,0.82813 -0.64062,0.82812 -0.64062,2.34375 v 4.32812 h -1.45313 v -6.79687 q 0,-0.25 -0.0625,-1.9375 h 1.375 q 0.0312,1.3125 0.0312,1.4375 h 0.0469 q 0.34375,-0.75 1.14062,-1.20313 0.79688,-0.45312 1.76563,-0.45312 z m 6.56698,0 q 1.64063,0 2.48438,0.95312 0.84375,0.95313 0.84375,2.53125 v 5.46875 h -1.46875 v -5.29687 q 0,-1.01563 -0.46875,-1.65625 -0.45313,-0.64063 -1.51563,-0.65625 -1.34375,0 -2.03125,0.89062 -0.6875,0.875 -0.6875,2.45313 v 4.26562 h -1.45312 v -6.79687 q 0,-0.0937 -0.0625,-1.9375 h 1.375 q 0.0312,1.3125 0.0312,1.4375 h 0.0469 q 0.34375,-0.75 1.14063,-1.20313 0.79687,-0.45312 1.76562,-0.45312 z"
       id="path424"
       inkscape:connector-curvature="0"
       style="fill:#ffffff;fill-rule:nonzero" />
    <path
       d="m 368.45205,129.88896 q 2.125,0 3.3125,0.92187 1.1875,0.90625 1.21875,2.6875 0,1.73438 -1.15625,2.6875 -1.15625,0.9375 -3.09375,0.96875 h -2.73438 v 5.9375 h -1.5625 v -13.20312 z m 0.28125,5.8125 q 1.1875,0 1.875,-0.57813 0.6875,-0.57812 0.6875,-1.60937 0,-1.01563 -0.6875,-1.59375 -0.67188,-0.57813 -1.875,-0.57813 h -2.73438 v 4.35938 z m 10.79752,-1.5625 q 0.32812,0 0.59375,0.0937 l -0.0937,1.46875 q -0.40625,-0.10938 -0.78125,-0.10938 -1.26563,0 -1.92188,0.82813 -0.64062,0.82812 -0.64062,2.34375 v 4.32812 h -1.45313 v -6.79687 q 0,-0.25 -0.0625,-1.9375 h 1.375 q 0.0312,1.3125 0.0312,1.4375 h 0.0469 q 0.34375,-0.75 1.14062,-1.20313 0.79688,-0.45312 1.76563,-0.45312 z m 5.62951,0 q 1.90625,0 2.76563,0.90625 0.875,0.89062 0.89062,2.6875 v 3.92187 q 0,0.5625 0.14063,1.4375 h -1.40625 q -0.0937,-0.17187 -0.0937,-1.3125 h -0.0312 q -1,1.5 -2.875,1.53125 -1.4375,0 -2.34375,-0.71875 -0.90625,-0.71875 -0.90625,-1.875 0,-1.57812 1.29687,-2.3125 1.3125,-0.73437 4.09375,-0.73437 h 0.67188 v -0.25 q 0,-1.90625 -2.15625,-1.9375 -1.57813,0 -2.59375,0.95312 l -0.92188,-0.95312 q 1.34375,-1.3125 3.46875,-1.34375 z m -2.29687,6.4375 q 0,1.46875 1.92187,1.51562 1.14063,0 1.85938,-0.73437 0.71875,-0.73438 0.71875,-2.125 v -0.34375 h -1.60938 q -1.28125,0 -2.07812,0.42187 -0.78125,0.40625 -0.8125,1.26563 z m 12.65133,-6.4375 q 2.07813,0 3.34375,1.375 l -1.15625,1.03125 q -0.875,-1.0625 -2.20312,-1.0625 -1.35938,0 -2.15625,0.89062 -0.79688,0.875 -0.79688,2.35938 0,1.39062 0.84375,2.3125 0.85938,0.90625 2.10938,0.92187 1.4375,0 2.21875,-1.07812 l 1.07812,1.03125 q -1.20312,1.375 -3.29687,1.39062 -2,-0.0156 -3.23438,-1.26562 -1.23437,-1.25 -1.28125,-3.3125 0.0156,-2.09375 1.29688,-3.34375 1.29687,-1.25 3.23437,-1.25 z m 7.16419,-2.26563 v 2.48438 h 2.57812 v 1.23437 h -2.57812 v 4.67188 q 0,1.03125 0.32812,1.375 0.34375,0.32812 0.98438,0.32812 0.71875,0 1.28125,-0.29687 l 0.0625,1.32812 q -0.75,0.3125 -1.70313,0.3125 -1.34375,0 -1.875,-0.65625 -0.53125,-0.65625 -0.53125,-2.17187 v -4.89063 h -1.90625 v -1.23437 h 1.90625 v -2.48438 z m 5.22327,-1.98437 q 0.4375,0 0.75,0.3125 0.3125,0.29687 0.3125,0.75 0,0.46875 -0.29688,0.76562 -0.29687,0.29688 -0.76562,0.29688 -0.46875,0 -0.76563,-0.29688 -0.29687,-0.29687 -0.29687,-0.76562 0,-0.45313 0.3125,-0.75 0.32812,-0.3125 0.75,-0.3125 z m 0.73437,4.46875 v 8.73437 h -1.45312 v -8.73437 z m 6.91501,-0.21875 q 2.07812,0 3.34375,1.375 l -1.15625,1.03125 q -0.875,-1.0625 -2.20313,-1.0625 -1.35937,0 -2.15625,0.89062 -0.79687,0.875 -0.79687,2.35938 0,1.39062 0.84375,2.3125 0.85937,0.90625 2.10937,0.92187 1.4375,0 2.21875,-1.07812 l 1.07813,1.03125 q -1.20313,1.375 -3.29688,1.39062 -2,-0.0156 -3.23437,-1.26562 -1.23438,-1.25 -1.28125,-3.3125 0.0156,-2.09375 1.29687,-3.34375 1.29688,-1.25 3.23438,-1.25 z m 8.94543,0 q 1.9375,0 3.03125,1.21875 1.09375,1.21875 1.10938,3.46875 v 0.34375 h -7.0625 q 0.125,1.21875 0.92187,2 0.79688,0.78125 1.95313,0.79687 1.78125,0 2.76562,-1.3125 l 1.09375,0.85938 q -0.6875,0.89062 -1.625,1.34375 -0.92187,0.45312 -2.23437,0.45312 -1.98438,0 -3.20313,-1.29687 -1.21875,-1.29688 -1.23437,-3.28125 0,-1.98438 1.23437,-3.26563 1.25,-1.29687 3.25,-1.32812 z m 2.5625,3.79687 q -0.0469,-1.125 -0.73437,-1.78125 -0.67188,-0.67187 -1.90625,-0.67187 -1.125,0 -1.89063,0.64062 -0.76562,0.625 -0.95312,1.8125 z m 6.49787,-3.79687 q 2.09375,0.0156 2.96875,1.57812 l -1.21875,0.8125 q -0.625,-1.04687 -1.84375,-1.04687 -0.71875,0 -1.21875,0.34375 -0.5,0.32812 -0.5,0.85937 0,0.89063 2.1875,1.28125 1.5625,0.28125 2.21875,0.92188 0.65625,0.625 0.65625,1.6875 0,1.28125 -0.95313,2.01562 -0.95312,0.71875 -2.53125,0.71875 -1.23437,0 -2.03125,-0.39062 -0.79687,-0.39063 -1.375,-1.23438 l 1.15625,-0.89062 q 0.54688,0.65625 1.0625,0.92187 0.53125,0.25 1.1875,0.25 0.82813,0 1.375,-0.35937 0.54688,-0.35938 0.54688,-0.98438 0,-0.625 -0.57813,-0.9375 -0.5625,-0.32812 -1.89062,-0.59375 -1.3125,-0.26562 -1.90625,-0.82812 -0.57813,-0.5625 -0.57813,-1.54688 0,-1.10937 0.90625,-1.82812 0.90625,-0.73438 2.35938,-0.75 z"
       id="path426"
       inkscape:connector-curvature="0"
       style="fill:#ffffff;fill-rule:nonzero" />
    <path
       d="m 478.29005,117.14622 h 21.62205 v -8.02362 l 16.04723,16.04724 -16.04723,16.04724 v -8.02362 h -21.62205 z"
       id="path428"
       inkscape:connector-curvature="0"
       style="fill:#074284;fill-rule:evenodd" />
  </g>
</svg>
